<svg width="400" height="418" viewBox="0 0 400 418" fill="none" xmlns="http://www.w3.org/2000/svg">
<g clip-path="url(#clip0_11_1756)">
<path d="M283.541 150.035C284 152.892 284.275 157.059 284.183 159.321C284.091 161.583 284.458 163.964 285.008 164.678C285.742 165.63 286.2 164.559 286.75 160.273C287.208 156.345 287.025 154.44 286.292 154.083C285.742 153.845 285.283 152.773 285.283 151.583C285.283 150.511 284.733 148.488 284 147.178C282.808 145.154 282.716 145.512 283.541 150.035Z" fill="#D8A892"/>
<path d="M177.467 37.3333C175.733 38.8 174.8 40 175.2 40C175.733 40 175.333 40.8 174.4 41.8667C173.467 42.9333 172.267 43.4667 171.867 43.2C171.467 43.0667 169.467 42.5333 167.467 42.1333C163.733 41.4667 153.333 45.0667 153.333 46.9333C153.333 47.6 152.133 48 150.667 48C143.333 48 135.333 55.6 138 60C138.533 60.8 138.133 61.3333 137.467 61.3333C136.667 61.3333 136 62.1333 136 62.9333C136.133 63.8667 137.2 63.3333 138.533 61.6C140 60 141.6 58.6667 142.133 58.6667C142.667 58.6667 144.8 57.0667 146.8 55.2C149.867 52.2667 151.867 51.6 157.867 51.4667C162.933 51.3333 165.2 50.8 164.8 49.7333C164 47.8667 168.8 43.3333 169.867 45.0667C170.267 45.7333 171.867 46.6667 173.333 47.0667C175.6 47.6 176 47.3333 175.333 45.2C174.267 41.8667 175.733 42 179.467 45.4667C181.333 47.2 182.667 47.7333 183.333 46.8C183.733 46 183.2 45.3333 182 45.3333C180 45.3333 180.133 44.8 182.533 40.8C185.067 36.8 185.067 36.2667 183.2 35.4667C180.667 34.5333 181.2 34.2667 177.467 37.3333ZM165.333 45.3333C165.333 46.6667 161.067 49.3333 158.8 49.3333C156.667 49.3333 158.667 45.6 161.067 44.9333C164.8 43.8667 165.333 44 165.333 45.3333Z" fill="#D8A892"/>
<path d="M159.576 81.7067C158.576 85.426 158.743 85.9982 161.161 89.7174C164.996 95.5825 167.831 93.0076 164.579 86.5704C163.662 84.7107 162.661 81.9928 162.411 80.5623C161.661 76.843 160.744 77.1291 159.576 81.7067Z" fill="#D8A892"/>
<path d="M198.933 44C200.8 46.8 202.667 47.4667 202.667 45.3333C202.667 44.5333 203.733 44 204.933 44C208.133 44 206.667 43.2 201.733 42.2667C197.6 41.4667 197.467 41.6 198.933 44Z" fill="#D8A892"/>
<path d="M218.667 44.6667C218.667 44.9333 219.867 45.8667 221.333 46.6667C224.533 48.4 228 46.9333 225.2 45.2C223.2 44 218.667 43.6 218.667 44.6667Z" fill="#D8A892"/>
<path d="M249.19 47.8445C246.524 49.3112 246.39 49.7112 248.257 51.1779C249.324 52.1112 250.257 52.3779 250.257 51.8445C250.257 51.3112 251.457 52.2445 252.924 53.9779C254.257 55.7112 255.457 56.3779 255.59 55.4445C255.59 54.6445 254.924 53.8445 254.124 53.8445C253.19 53.8445 253.457 52.6445 254.657 50.6445C257.857 45.8445 255.19 44.5112 249.19 47.8445Z" fill="#D8A892"/>
<path d="M227.467 47.4667C226.533 50 227.733 52.4 229.467 51.2C230.133 50.8 230.4 50 230 49.3333C228.267 46.5333 232.533 46.6667 235.467 49.4667C238.667 52.4 238.667 52.4 238.667 49.7333C238.667 45.4667 228.933 43.4667 227.467 47.4667Z" fill="#D8A892"/>
<path d="M211.333 55.9998C209.2 58.2665 209.2 58.6665 211.067 58.6665C212.267 58.6665 213.467 58.1332 213.867 57.4665C214.267 56.7998 215.867 56.5332 217.2 56.9332C218.533 57.3332 220.133 56.7998 220.667 55.8665C221.467 54.6665 220.933 54.3998 218.933 54.9332C217.333 55.4665 216 55.1998 216 54.5332C216 52.5332 213.867 53.1998 211.333 55.9998Z" fill="#D8A892"/>
<path d="M138.767 71.3333C136.633 73.6 136.633 74 138.5 74C139.7 74 140.9 73.4667 141.3 72.8C141.7 72.1333 143.3 71.8667 144.633 72.2667C145.967 72.6667 147.567 72.1333 148.1 71.2C148.9 70 148.367 69.7333 146.367 70.2667C144.767 70.8 143.433 70.5333 143.433 69.8667C143.433 67.8667 141.3 68.5333 138.767 71.3333Z" fill="#D8A892"/>
<path d="M246.267 58.6667C245.2 63.6 246.267 66.6667 249.067 66.6667C250.8 66.6667 250.667 66.2667 248.667 64.8C246.4 63.2 246.267 62.5333 247.733 59.4667C249.6 55.2 249.733 54.6667 248.133 54.6667C247.467 54.6667 246.667 56.4 246.267 58.6667Z" fill="#D8A892"/>
<path d="M106.406 108C105.34 112.933 106.406 116 109.206 116C110.94 116 110.806 115.6 108.806 114.133C106.54 112.533 106.406 111.867 107.873 108.8C109.74 104.533 109.873 104 108.273 104C107.606 104 106.806 105.733 106.406 108Z" fill="#D8A892"/>
<path d="M233.467 62.1334C233.333 63.6 234.133 65.8667 235.067 66.9334C236.4 68.9334 236.933 68.9334 238.4 67.2C239.867 65.6 239.733 65.3334 237.867 65.3334C236.533 65.3334 236 64.6667 236.533 63.2C236.933 62.1334 236.8 61.4667 236.133 62C235.467 62.4 234.533 61.8667 234.267 61.0667C233.867 60.1334 233.467 60.5334 233.467 62.1334Z" fill="#D8A892"/>
<path d="M120.015 95.5626C119.881 97.0292 120.681 99.2959 121.615 100.363C122.948 102.363 123.481 102.363 124.948 100.629C126.415 99.0292 126.281 98.7626 124.415 98.7626C123.081 98.7626 122.548 98.0959 123.081 96.6292C123.481 95.5626 123.348 94.8959 122.681 95.4292C122.015 95.8292 121.081 95.2959 120.815 94.4959C120.415 93.5626 120.015 93.9626 120.015 95.5626Z" fill="#D8A892"/>
<path d="M226.667 62.4C226.667 63.0667 225.333 64.2667 223.733 65.2C222 66 221.733 66.4 223.067 66.1333C224.267 65.7333 225.333 66 225.333 66.6667C225.333 67.4667 226.533 68 228 68C229.467 68 230.667 67.3333 230.667 66.6667C230.667 65.8667 229.733 65.3333 228.667 65.3333C227.467 65.3333 227.067 64.5333 227.467 63.3333C228 62.2667 227.867 61.3333 227.467 61.3333C227.067 61.3333 226.667 61.8667 226.667 62.4Z" fill="#D8A892"/>
<path d="M123.6 66.4001C121.067 69.2001 118.8 83.6001 121.067 82.1335C122 81.6001 123.067 78.8002 123.467 76.0002C124 73.0668 125.2 70.0002 126.133 69.2002C128.133 67.4668 128.667 64.0001 126.933 64.0001C126.267 64.0001 124.8 65.0668 123.6 66.4001Z" fill="#D8A892"/>
<path d="M145.667 84.5333C143.133 87.3333 140.867 101.733 143.133 100.267C144.067 99.7333 145.133 96.9333 145.533 94.1333C146.067 91.2 147.267 88.1333 148.2 87.3333C150.2 85.6 150.733 82.1333 149 82.1333C148.333 82.1333 146.867 83.2 145.667 84.5333Z" fill="#D8A892"/>
<path d="M213.333 66.5333C213.333 67.6 212.533 68 211.2 67.4667C210 67.0667 209.6 67.2 210 68.1333C210.533 68.9333 211.867 69.2 213.2 68.8C214.933 68.1333 214.933 68.2667 212.933 69.8667C210.8 71.6 210.8 71.8667 212.667 73.8667C215.067 76.2667 217.333 76.6667 217.333 74.6667C217.333 73.8667 216.667 73.3333 215.867 73.3333C215.067 73.3333 214.8 72.2667 215.2 70.9333C215.6 69.7333 215.333 67.7333 214.667 66.6667C213.733 65.0667 213.333 65.0667 213.333 66.5333Z" fill="#D8A892"/>
<path d="M199.333 68.1333C196.667 69.2 196.667 69.2 199.467 70C201.6 70.6667 202.133 71.7333 201.6 74.1333C201.333 75.8667 201.6 77.3333 202.4 77.3333C203.067 77.3333 204 79.0667 204.267 81.2C204.667 84.2667 204.4 84.8 202.4 84.2667C201.067 84 200 84.4 200 85.2C200 86 200 87.0667 200 87.6C200 88.1333 201.333 88.5333 203.067 88.5333C204.667 88.5333 206.667 89.4667 207.6 90.6667C210 93.6 209.733 90.8 206.667 82C205.2 77.7333 204 72.9333 204 71.2C204 67.4667 202.8 66.6667 199.333 68.1333Z" fill="#D8A892"/>
<path d="M256 71.4667C256 74.5333 259.333 82.4 260.267 81.8667C260.933 81.4667 260.8 80.2667 260 79.3333C258.933 78 258.933 77.3333 260.133 76.6667C261.2 75.8667 261.067 75.3333 259.867 74.5333C258.4 73.6 258.533 73.3333 260.4 73.3333C261.6 73.3333 262.667 74 262.667 74.8C262.667 75.4667 263.2 75.8667 263.867 75.4667C264.533 75.0667 265.733 75.6 266.667 76.6667C267.6 77.7333 269.333 78.6667 270.667 78.6667C272.667 78.6667 272.4 78 269.333 74.6667C266.533 71.6 264.4 70.6667 260.8 70.6667C258.133 70.6667 256 71.0667 256 71.4667Z" fill="#D8A892"/>
<path d="M248.933 80.9333C249.6 85.2 249.467 85.7333 247.467 84.9333C245.733 84.2667 244.933 84.8 244.4 86.6667C243.6 89.8667 243.067 90 240.4 87.3333C239.333 86.2667 237.867 85.7333 237.067 86.1333C236.133 86.6667 236.267 87.3333 237.333 88C238.533 88.6667 238.533 89.2 237.467 89.8667C236.667 90.4 236.267 91.4667 236.667 92.1333C237.867 94 242.133 93.6 244 91.3333C244.933 90.2667 246.267 89.7333 247.2 90.2667C248 90.6667 248.267 90.6667 247.733 90C247.2 89.4667 247.6 88.1333 248.667 87.0667C250.8 84.9333 251.467 76 249.467 76C248.667 76 248.533 78.1333 248.933 80.9333Z" fill="#D8A892"/>
<path d="M111.2 83.3333C110 85.8667 108.4 88 107.733 88C106.933 88 106.667 88.8 107.067 89.8667C107.467 90.9333 107.2 92 106.267 92.4C105.2 92.6667 105.467 93.6 107.067 95.2C109.2 97.4667 109.333 97.3333 109.333 94.1333C109.333 92.2667 109.867 90.6667 110.533 90.6667C111.2 90.6667 112.133 88.8 112.667 86.6667C113.2 84.4 114.133 82.9333 114.8 83.4667C115.467 83.8667 116 82.9333 116 81.4667C116 77.2 113.733 78.1333 111.2 83.3333Z" fill="#D8A892"/>
<path d="M182.533 80.1333C182.533 81.2 182.267 83.0667 182 84.2667C181.733 85.6 182.133 86.6667 182.8 86.6667C183.333 86.6667 183.6 87.6 183.2 88.6667C182.667 89.7333 181.6 90.6667 180.667 90.6667C179.6 90.6667 178.4 91.2 178 92C177.6 92.6667 179.867 93.2 183.6 93.0667C188.8 92.9333 189.467 92.6667 187.2 91.7333C185.067 90.8 184.4 89.0667 184.267 85.0667C184 79.8667 182.8 76.1333 182.533 80.1333Z" fill="#D8A892"/>
<path d="M214.8 83.6C214.667 87.7333 214.8 87.8667 218.133 86.6667C223.067 84.8 224.667 84.9333 222.667 87.2C221.867 88.2667 220.133 88.8 219.067 88.4C217.6 87.8667 217.2 88.1333 217.867 89.0667C218.4 90 220 90.6667 221.467 90.6667C222.933 90.6667 223.733 90 223.333 89.3333C222.933 88.5333 223.467 87.6 224.667 87.2C228.133 85.8667 224.133 83.8667 219.733 84.8C216.8 85.3333 216.133 84.9333 215.6 82.4C215.2 80.1333 214.933 80.4 214.8 83.6Z" fill="#D8A892"/>
<path d="M127.032 85.687C126.899 89.8204 127.032 89.9537 130.366 88.7537C135.299 86.887 136.899 87.0204 134.899 89.287C134.099 90.3537 132.366 90.887 131.299 90.487C129.832 89.9537 129.432 90.2204 130.099 91.1537C130.632 92.087 132.232 92.7537 133.699 92.7537C135.166 92.7537 135.966 92.087 135.566 91.4204C135.166 90.6204 135.699 89.687 136.899 89.287C140.366 87.9537 136.366 85.9537 131.966 86.887C129.032 87.4204 128.366 87.0204 127.832 84.487C127.432 82.2204 127.166 82.487 127.032 85.687Z" fill="#D8A892"/>
<path d="M263.2 84.5333C262.8 85.7333 261.867 86.2667 261.2 85.8667C260.533 85.4667 260 86.1333 260 87.2C260 90.4 263.6 89.7333 264.4 86.4C265.333 82.9333 264.4 81.3333 263.2 84.5333Z" fill="#D8A892"/>
<path d="M117.2 109.73C116.8 110.93 115.867 111.463 115.2 111.063C114.533 110.663 114 111.33 114 112.396C114 115.596 117.6 114.93 118.4 111.596C119.333 108.13 118.4 106.53 117.2 109.73Z" fill="#D8A892"/>
<path d="M223.733 94.8C222.4 95.6 226.4 98 228.4 97.6C228.933 97.4667 229.333 97.8667 229.333 98.5333C229.333 99.8667 231.867 99.7333 234.4 98.2667C235.2 97.6 236 97.6 236 98.2667C236 98.8 237.333 100.8 238.8 102.667C240.267 104.533 241.2 105.333 240.8 104.533C240.4 103.6 240.933 102.667 242 102.133C243.067 101.733 244 100.4 243.867 99.0667C243.867 96.9333 243.733 96.9333 242.667 99.3333C241.733 101.6 241.467 101.6 241.467 99.6C241.333 98.2667 240.267 97.2 238.667 97.2C233.6 96.8 232.667 96.5333 232.933 95.3333C233.067 93.8667 225.867 93.4667 223.733 94.8Z" fill="#D8A892"/>
<path d="M166 58.5C164.667 59.3 168.667 61.7 170.667 61.3C171.2 61.1667 171.6 61.5667 171.6 62.2333C171.6 63.5667 174.133 63.4333 176.667 61.9667C177.467 61.3 178.267 61.3 178.267 61.9667C178.267 62.5 179.6 64.5 181.067 66.3667C182.533 68.2333 183.467 69.0333 183.067 68.2333C182.667 67.3 183.2 66.3667 184.267 65.8333C185.333 65.4333 186.267 64.1 186.133 62.7667C186.133 60.6333 186 60.6333 184.933 63.0333C184 65.3 183.733 65.3 183.733 63.3C183.6 61.9667 182.533 60.9 180.933 60.9C175.867 60.5 174.933 60.2333 175.2 59.0333C175.333 57.5667 168.133 57.1667 166 58.5Z" fill="#D8A892"/>
<path d="M272 94.8258C272 95.3592 273.467 96.4258 275.333 97.2258C277.2 98.0258 278.667 99.6258 278.667 100.559C278.667 101.492 279.6 103.492 280.667 104.959C282.133 106.826 282 105.892 280.267 100.826C278.4 95.6258 277.2 94.1592 274.933 94.0258C273.333 93.8925 272 94.2925 272 94.8258Z" fill="#D8A892"/>
<path d="M252.667 103.867C252.267 104.667 250.667 106 249.067 106.8C247.067 107.867 246.533 107.867 247.2 106.8C247.733 106 247.2 105.333 246 105.333C243.067 105.333 244.267 108.533 247.333 109.2C248.667 109.333 252.667 112 256.4 114.8C260 117.6 263.467 120 264.133 120C264.667 120 266.4 121.333 268 122.933C269.867 125.067 270.667 125.333 270.667 123.867C270.667 122.8 269.6 120.933 268.4 119.733C267.067 118.667 264.267 115.733 262 113.2L258 108.933L262.4 109.733C265.2 110.267 266.533 110.133 266 109.333C265.6 108.533 264.133 108 262.667 108C260.933 108 260.4 107.2 260.8 104.933C261.2 102.667 260.933 102.8 259.733 105.6C258.8 107.733 257.6 109.333 256.933 109.333C256.4 109.333 256.267 109.867 256.667 110.667C257.067 111.333 256.8 112 256 112C255.067 112 254.8 110.933 255.467 109.067C256.267 106.4 256.133 106.267 254.133 107.867C252.933 108.933 251.6 109.333 251.067 108.8C250.533 108.4 251.333 107.067 252.8 106.133C254.133 105.067 254.933 103.867 254.4 103.333C254 102.933 253.2 103.067 252.667 103.867Z" fill="#D8A892"/>
<path d="M269.733 106.8C271.2 107.6 273.067 110.133 274.133 112.533C275.867 116.667 275.867 116.667 276 113.067C276 107.467 274.667 105.333 270.8 105.333C267.733 105.467 267.6 105.6 269.733 106.8Z" fill="#D8A892"/>
<path d="M105.333 119.067C103.333 127.6 102.8 158.533 104.4 166C104.933 168.133 105.867 173.333 106.533 177.333C108.4 188.533 110 193.6 114 202.133C117.067 208.667 117.6 211.467 117.467 219.6C117.2 229.467 120 240.933 123.067 242.933C124 243.467 126.267 244 128.133 244C131.067 244 131.867 244.933 133.867 251.6C135.2 255.867 138.4 263.2 140.8 268C143.333 272.667 145.333 277.2 145.333 278.133C145.333 280.667 157.733 292.933 158.4 290.933C158.667 290.133 159.467 289.333 160.267 289.333C161.067 289.333 161.2 290.267 160.8 291.467C160.267 292.933 160.533 293.467 161.6 292.933C163.467 292.267 166.933 295.2 165.867 296.4C165.467 296.8 166.4 297.467 167.867 298C169.333 298.4 170.933 299.867 171.333 301.2C172.533 305.067 187.333 312.933 196.8 314.667C206.8 316.533 217.6 315.733 222.267 312.667C224 311.467 226 310.933 226.667 311.333C227.467 311.733 228 311.467 228 310.8C228 310 228.8 309.333 229.867 309.333C230.933 309.333 232.933 307.867 234.4 306C235.867 304.267 237.333 303.067 237.733 303.467C238.133 303.867 240 302 242 299.333C248.8 290.533 242.8 292.667 231.6 303.2C229.6 305.067 226.8 306.667 225.467 306.667C224.133 306.667 222.267 307.467 221.467 308.533C217.333 313.467 197.467 314.4 197.2 309.6C197.2 307.6 197.067 307.6 196.267 309.6C195.333 311.733 194.667 311.6 187.333 308.267C178.8 304.133 175.2 300.933 176.667 298.8C177.2 297.867 176.533 297.733 175.2 298.267C173.467 298.933 173.067 298.533 173.733 297.067C174.267 295.467 173.867 295.2 172 295.6C170.4 296 169.333 295.333 168.667 293.467C168.267 292 167.2 290.8 166.4 291.067C165.6 291.2 164.667 290.533 164.4 289.6C164 288.8 164.4 288 165.333 288C166.133 288 166.4 287.333 166 286.667C165.467 285.867 164.267 285.733 162.933 286.533C159.467 288.267 154.267 285.867 155.067 282.8C155.467 281.2 154.933 280.4 153.6 280.533C151.467 280.667 145.2 270.933 146.267 268.933C146.533 268.4 146.133 268 145.467 268C144.667 268 143.6 265.6 143.2 262.667C142.667 259.733 141.867 257.6 141.333 258C140.8 258.4 140 257.333 139.6 255.733C139.067 254.133 139.467 252.267 140.4 251.733C141.467 251.067 141.2 250.533 139.6 249.867C138.4 249.467 137.333 248.267 137.333 247.333C137.333 246.533 136.133 244.4 134.667 242.667C133.2 240.933 131.867 238.933 131.733 238.133C131.733 237.333 131.467 236 131.467 235.333C131.333 234.533 130.8 233.333 130.267 232.533C129.067 230.4 124.4 210.133 122.667 199.2C119.867 180.533 118.4 173.333 117.2 174.133C116.533 174.533 116 174.133 116 173.467C116 172.667 116.4 172 117.067 172C117.6 172 118.133 169.2 118.267 165.867C118.533 158.267 117.733 158.8 116.133 167.333C115.2 172.4 115.333 175.067 116.933 179.067C118.8 183.733 118.8 184.4 116.933 186.4C114.133 189.2 113.467 188.4 112.8 181.2C112.533 178 112 174.4 111.467 173.333C109.333 167.733 108.8 161.2 108.667 137.6C108.533 123.6 108.133 111.733 107.867 111.333C107.467 111.067 106.4 114.533 105.333 119.067ZM124 225.067C126 226.667 127.2 229.467 127.6 234C128.267 240.667 128.267 240.667 125.733 238C123.067 235.2 118.4 222.667 120 222.667C120.533 222.667 122.4 223.733 124 225.067Z" fill="#D8A892"/>
<path d="M278 119.867C276.8 123.867 276.8 137.6 278.133 143.6C278.667 146.533 278.533 148 277.467 148C276.667 148 276 147.067 276 146C276 144.933 275.467 144 274.933 144C273.467 144 274.533 151.733 276.133 152.8C276.8 153.2 277.333 152.533 277.333 151.467C277.333 150.267 278.267 149.333 279.333 149.333C280.8 149.333 281.2 148.4 280.667 146.267C279.333 140.267 278.933 130.667 280.133 130.667C280.8 130.667 281.467 132.667 281.467 134.933C281.733 138.533 281.867 138.667 282.267 136C282.533 134.133 282 129.067 280.933 124.667C279.333 117.733 278.933 117.067 278 119.867Z" fill="#D8A892"/>
<path d="M263.6 123.467C262.4 124.8 264.133 128 266.133 128C268.267 128 268.267 127.733 267.2 124.8C266.4 122.533 265.067 122.133 263.6 123.467Z" fill="#D8A892"/>
<path d="M271.467 130.133C272.133 132.933 272 133.467 270.667 132.667C269.6 132 269.2 132.133 269.867 133.067C270.267 133.733 270.133 134.667 269.467 134.933C268.8 135.067 269.067 136.133 270.133 137.067C271.733 138.533 272 138.4 272 136.667C272 135.6 272.533 134.667 273.067 134.667C273.733 134.667 274.133 133.333 273.867 131.6C273.733 130 273.467 128.267 273.467 127.6C273.333 127.067 272.667 126.667 272 126.667C271.2 126.667 270.933 128.133 271.467 130.133Z" fill="#D8A892"/>
<path d="M270.8 154.8C270 157.067 270.533 159.467 270.8 160C271 160.5 270.8 164 271.2 168C271.733 172 272.4 177.067 272.8 179.333C273.333 181.467 273.733 189.733 273.867 197.6C274 205.467 274.533 212.267 274.933 212.8C275.867 213.6 277.867 208.533 278 204.667C278.533 197.333 278.8 195.867 279.733 196.533C280.267 196.8 280.533 195.2 280.267 192.933C280 190.533 280.933 186.533 282.4 183.6C284.933 178.8 284.933 173.333 282.533 173.333C281.867 173.333 281.467 173.733 281.467 174.267C281.867 177.067 281.2 178.667 279.467 178.667C277.867 178.667 276 173.333 275.333 167.333C275.2 166.533 274.667 164.533 274 162.667C273.467 160.8 273.067 157.333 273.2 154.933C273.467 149.6 272.667 149.467 270.8 154.8Z" fill="#D8A892"/>
<path d="M243.2 155.733C243.733 157.467 243.333 158.667 242 159.2C240.8 159.6 240.267 159.467 240.667 158.667C241.067 157.867 240.533 157.333 239.467 157.333C238.267 157.333 237.333 157.867 237.333 158.4C237.333 159.067 231.067 159.467 223.333 159.2C211.867 159.067 209.333 159.333 209.333 160.933C209.333 162 208.667 162.4 207.733 161.867C206.933 161.333 206.667 161.467 207.2 162.4C207.6 163.2 207.467 164.133 206.667 164.667C206 165.067 205.333 164.8 205.333 163.867C205.333 162.933 205.067 162.533 204.667 162.933C204.267 163.333 204.267 164.667 204.8 165.867C205.333 167.467 206.133 167.733 207.333 166.667C208.133 166 209.467 165.867 210 166.4C210.667 166.933 210.667 166.533 210.133 165.6C208.933 163.6 212.8 163.333 214 165.467C214.533 166.267 215.867 166.4 217.2 166C218.4 165.467 224.133 164.8 230 164.4C235.867 164.133 240.8 163.6 241.067 163.333C241.867 162.533 254 167.867 253.733 168.933C253.733 169.467 254.4 170.8 255.467 171.733C257.867 173.867 257.733 172.267 255.467 168.133C254.4 166.267 253.867 164.133 254 163.467C254.267 162.667 251.733 160 248.533 157.6C243.6 154 242.667 153.733 243.2 155.733Z" fill="#D8A892"/>
<path d="M152 167.867C148 169.2 144.133 169.867 143.333 169.333C139.867 166.533 133.067 171.333 131.067 177.867C129.2 183.867 130.933 185.2 134.933 180.667C136.533 178.8 138.933 177.333 140.267 177.333C141.6 177.333 142.667 176.8 142.667 176.133C142.667 175.6 141.067 175.2 139.2 175.467C135.867 175.733 135.867 175.6 137.733 173.733C139.333 172.133 140.267 172 141.6 173.067C142.8 174 146 174.133 151.333 173.467C155.733 172.8 159.733 172.533 160.267 172.8C160.667 173.067 161.333 172.8 161.6 172.133C161.733 171.6 165.067 171.467 168.8 171.867C174.533 172.667 175.867 172.4 177.2 170.4C179.2 167.2 179.067 166 176.8 167.867C175.467 168.933 174.667 168.933 173.6 167.6C171.333 164.933 160.4 165.067 152 167.867Z" fill="#D8A892"/>
<path d="M287.333 170.667C286.933 171.333 288 172.667 289.733 173.467C292.8 174.8 293.2 176 294 186.533C295.067 200.267 294 219.067 291.867 222.8C289.333 227.6 291.6 226.933 294.4 222C296 219.467 297.867 217.333 298.667 217.333C299.467 217.333 299.733 215.6 299.2 212.933C298 206 297.6 185.333 298.8 184.667C301.067 183.2 292.667 169.333 289.6 169.333C288.8 169.333 287.733 169.867 287.333 170.667Z" fill="#D8A892"/>
<path d="M220.4 174.267C218.8 174.533 216.8 175.733 216 176.8C213.733 179.333 215.733 179.067 221.333 176C226 173.467 225.867 173.2 220.4 174.267Z" fill="#D8A892"/>
<path d="M223.6 176.933C221.733 177.467 221.333 178.4 222 181.467C222.933 185.467 222 186.133 218.8 184.133C217.2 183.067 217.2 182.533 218.533 180.8C219.6 179.6 219.867 178.667 219.2 178.667C217.6 178.667 215.867 180.133 212.667 183.867L210 186.933L223.333 185.867C230.667 185.333 239.2 184.8 242.4 184.8C245.467 184.8 248 184.133 248 183.333C248 182.667 245.067 180.667 241.467 178.933C235.333 176.133 229.2 175.467 223.6 176.933ZM238.267 180.8C239.067 183.333 235.067 184 229.067 182.133C223.6 180.4 223.467 180.4 227.733 180.4C230.133 180.4 232.4 180 232.933 179.467C234.267 178.133 237.733 179.067 238.267 180.8Z" fill="#D8A892"/>
<path d="M168 180C169.067 180.667 171.067 181.333 172.267 181.333C173.467 181.333 174.8 181.733 175.067 182.267C175.467 182.933 171.2 183.333 165.467 183.333C156.133 183.333 154.667 183.733 148.267 187.867C144.533 190.267 141.733 192.8 142.133 193.467C142.533 194.133 143.467 194.267 144.267 193.867C145.067 193.333 149.067 192.8 153.2 192.533C165.2 192 176.533 190.4 177.867 189.2C178.533 188.533 178.4 187.333 177.333 186C176 184.4 176 184 177.467 184C180.267 184 174.533 180.533 170 179.467C167.067 178.8 166.533 178.933 168 180ZM174 188.133C172.533 190.4 169.333 189.333 169.333 186.667C169.333 184.267 169.733 184.133 172 185.333C173.467 186.133 174.4 187.333 174 188.133ZM157.333 189.333C157.333 191.067 156.667 191.6 154.667 191.067C151.6 190.267 151.333 189.2 153.6 186.933C155.467 185.067 157.333 186.133 157.333 189.333Z" fill="#D8A892"/>
<path d="M183.467 194.133C182.133 199.2 183.467 199.6 186 194.8C187.733 191.333 187.733 190.667 186.133 190.667C185.2 190.667 183.867 192.267 183.467 194.133Z" fill="#D8A892"/>
<path d="M246.133 196.267C246.8 197.333 246.4 197.467 244.933 196.933C243.6 196.533 242.667 196.667 242.667 197.333C242.667 198.133 243.333 198.8 244 198.8C247.333 199.333 248 199.2 247.867 198C247.867 197.333 248.933 196.4 250.267 195.867C252.133 195.067 251.867 194.8 248.933 194.8C246.4 194.667 245.467 195.2 246.133 196.267Z" fill="#D8A892"/>
<path d="M282.267 204.933C281.6 208.8 283.733 211.467 285.733 209.467C287.333 207.867 286.4 202.267 284.533 201.733C283.733 201.467 282.667 202.933 282.267 204.933Z" fill="#D8A892"/>
<path d="M178.254 214.24C176.512 218.339 176.599 221.242 178.428 224.487C180.171 227.56 180.781 225.511 179.125 222.267C178.254 218.831 179.125 213.618 180.955 213.045C181.092 213.002 180.907 211.646 180.519 211.011C179.473 210.84 178.864 212.704 178.254 214.24Z" fill="#D8A892"/>
<path d="M215.755 213.61C217.485 216.883 217.398 219.201 215.582 221.792C213.853 224.246 213.248 222.61 214.891 220.019C215.755 217.5 215.956 213.004 213.621 212.049C211.719 211.231 211.432 211.145 213.075 211.009C214.112 210.872 215.15 212.383 215.755 213.61Z" fill="#D8A892"/>
<path d="M273.6 222.667V231.333L275.6 226.667C277.333 222.667 277.333 221.6 275.6 218C273.6 214 273.6 214.133 273.6 222.667Z" fill="#D8A892"/>
<path d="M231.467 222.533C231.067 223.2 234 226.267 238 229.333C243.867 233.867 245.467 235.867 246 239.867C246.533 242.533 247.067 245.6 247.2 246.667C247.467 247.867 248.267 247.067 249.2 244.667C250.267 242.133 250.533 239.467 249.733 237.467C248.4 233.733 232.533 220.667 231.467 222.533Z" fill="#D8A892"/>
<path d="M184 227.333C182 229.733 183.067 229.867 186.667 227.733C188.667 226.4 189.733 226.533 191.867 228.533C194.8 231.2 195.867 229.733 193.067 226.933C190.8 224.667 186 224.933 184 227.333Z" fill="#D8A892"/>
<path d="M211.062 226.717C212.943 228.821 211.94 228.938 208.554 227.068C206.673 225.899 205.67 226.016 203.664 227.769C200.905 230.107 199.902 228.821 202.535 226.367C204.667 224.38 209.181 224.613 211.062 226.717Z" fill="#D8A892"/>
<path d="M286 230.667C285.6 231.333 282.533 232 279.2 232H273.333V239.867C273.333 244.133 272.4 250.267 271.333 253.333C269.733 257.867 269.6 260.667 270.667 267.2C271.333 271.6 272 279.333 272 284.267C272 291.6 272.4 293.333 274 293.333C275.867 293.333 276 290.667 275.333 272.4C274.667 251.867 275.867 241.6 278.8 243.333C279.467 243.867 280 243.467 280 242.8C280 242 281.2 241.333 282.667 241.333C284.4 241.333 285.333 240.4 285.333 238.667C285.333 237.067 286.267 234.4 287.467 232.667C288.667 230.8 289.067 229.333 288.267 229.333C287.467 229.333 286.4 229.867 286 230.667Z" fill="#D8A892"/>
<path d="M156.533 244.667C156 246.533 156 248.533 156.533 248.933C156.933 249.467 157.333 248.8 157.333 247.733C157.333 246.533 158.267 245.333 159.333 244.8C161.867 243.867 161.867 241.333 159.333 241.333C158.267 241.333 157.067 242.8 156.533 244.667Z" fill="#D8A892"/>
<path d="M233.333 245.2C229.333 246.667 227.333 248.133 227.333 249.6C227.333 250.933 226.933 251.867 226.533 251.6C226.133 251.467 224.8 252.133 223.467 253.2C222.267 254.267 220.933 254.667 220.4 254.267C220 253.733 218.933 253.867 218.133 254.533C214.533 257.2 203.733 258.933 196.267 258C192.133 257.467 186.667 256.8 184.133 256.533C179.2 256 173.6 252.133 177.333 251.867C178.4 251.733 179.733 251.733 180.4 251.867C180.933 251.867 181.333 251.467 181.333 250.667C181.333 248.8 184.933 249.067 185.733 250.933C186.267 252.267 186.533 252.267 186.533 250.933C186.667 248.533 189.467 248.933 191.467 251.6C192.667 253.2 193.2 253.333 193.333 252.267C193.333 251.2 195.067 250.667 198.4 250.667C201.067 250.8 205.733 250.133 208.667 249.333C211.6 248.533 216.533 247.733 219.6 247.6C227.733 247.2 226.667 245.867 217.733 244.933C212.667 244.4 208.8 244.8 205.6 246C203.067 247.067 200.533 247.6 199.867 247.2C196.4 245.2 184.8 245.733 179.067 248.267C174.533 250.267 171.467 250.667 166.8 250.133L160.667 249.2L166.533 252.267C169.733 254 174.133 256.933 176.4 258.933C180.8 263.2 181.6 263.467 180.533 260.667C179.867 259.067 180.533 259.067 184.267 260.133C186.667 260.933 189.733 261.6 191.067 261.6C192.267 261.467 193.067 262 192.667 262.8C192.133 263.467 193.333 263.467 195.467 262.667C197.467 261.867 202.267 261.6 206.133 262C211.067 262.4 213.733 262.133 214.933 260.8C216 259.867 219.2 258.267 222 257.2C227.867 255.2 238.667 248.267 238.667 246.4C238.667 245.867 239.6 245.333 240.667 245.333C241.733 245.333 242.667 244.667 242.667 244C242.667 242.267 240.667 242.533 233.333 245.2Z" fill="#D8A892"/>
<path d="M183.6 263.6C182.933 264.533 183.867 265.867 185.6 266.8C187.333 267.733 189.067 269.067 189.6 269.867C190.667 271.6 201.2 271.333 203.067 269.467C203.867 268.667 202.933 268.267 200.133 268.267C197.867 268.4 196 268.933 196 269.6C196 270.133 195.467 270.667 194.667 270.667C194 270.667 193.733 269.867 194.133 268.8C194.667 267.333 194.133 267.067 192.133 267.6C190.533 268 189.333 267.733 189.333 266.8C189.333 266 188.533 265.333 187.467 265.333C186.4 265.333 185.333 264.667 185.067 263.733C184.667 262.533 184.267 262.533 183.6 263.6Z" fill="#D8A892"/>
<path d="M264.533 268.933C260.667 275.867 253.867 284.133 252.533 283.867C252 283.867 251.2 284.267 250.8 284.933C250.4 285.6 248.4 286.667 246.533 287.6C243.733 288.8 243.2 290.367 242 288.5C240.5 289.5 241.5 290 241.5 290C242.183 291.2 244.933 293.333 246.933 293.333C247.733 293.333 247.733 292.533 246.533 291.2C245.067 289.467 245.333 289.333 248.133 290C250.933 290.667 252.4 289.6 258.133 282.4C263.733 275.333 270.667 262.667 268.8 262.667C268.533 262.667 266.667 265.467 264.533 268.933Z" fill="#D8A892"/>
<path d="M272.4 306.267C272.933 314 272.533 319.6 270.667 328.133C268.4 338.133 264.133 349.6 264 346C263.867 345.2 262.933 346.4 261.867 348.4C260.667 350.533 260.133 352.533 260.533 353.067C260.933 353.467 261.333 353.067 261.333 352.133C261.333 351.2 261.867 350.933 262.667 351.333C263.467 351.867 263.2 353.6 262 356C260.667 358.667 260.133 362.933 260.4 369.733C260.667 377.2 260.267 379.467 259.067 379.067C258.133 378.667 257.067 379.867 256.533 381.867C256.133 383.733 255.067 385.333 254.267 385.333C253.2 385.333 253.333 385.867 254.4 386.933C256.4 388.933 265.333 384.267 265.333 381.067C265.333 379.867 266 378.4 266.667 378C267.467 377.467 267.867 374.533 267.733 371.333C267.467 367.6 266.8 366 266 366.8C265.333 367.467 264.267 368 263.733 368C261.333 368 262.933 362 268 352C271.067 346.267 274.933 336.8 276.667 331.067C279.6 321.467 279.867 321.067 279.867 326C280 328.933 280.267 334.667 280.667 338.667C281.067 344.533 280.933 345.2 280 342C278.8 338 278.8 338.133 279.067 342.933C279.333 345.733 278.8 348.267 278 348.667C277.2 349.067 277.2 349.6 278.4 350.133C279.2 350.533 280 353.067 280 355.733C280 362.667 281.6 359.867 282.4 351.733C283.867 334.533 282.4 318.8 278.533 308C272.933 292.4 271.333 292 272.4 306.267Z" fill="#D8A892"/>
<path d="M143.067 306.933C140.4 310.267 137.333 317.733 137.467 320.533V323.333L138.667 320.533C139.733 317.733 143.867 315.067 144.133 317.067C144.267 318 144.533 319.733 146 327.867C147.067 333.2 152.667 344.8 159.333 355.2C164.8 363.867 169.333 376.667 169.333 384C169.333 386.933 170 389.333 170.667 389.333C171.467 389.333 172 388.8 172 388C172 387.333 172.933 387.067 174 387.467C175.067 388 176 387.6 176 386.8C176 386 174.8 385.333 173.333 385.333C171.2 385.333 170.667 384.4 170.667 381.333C170.667 377.733 170.933 377.333 173.333 378.667C176.667 380.533 178.933 384.533 177.867 387.2C177.467 388.4 177.733 389.333 178.533 389.333C179.333 389.333 180 390.533 180 392C180 393.467 179.467 394.667 178.933 394.667C178.4 394.667 178 396.267 178.133 398.267C178.267 400.4 178.533 403.067 178.533 404.4C178.667 405.867 179.333 406.4 180.133 405.867C181.067 405.333 181.467 405.733 181.067 406.667C179.867 410.533 176.533 411.067 170.267 408.667C165.467 406.8 163.333 404.933 160.533 400.267C158.533 396.8 156.933 393.333 156.933 392.4C156.933 390.267 155.467 390.4 149.6 392.4L145.2 394L152.933 400.667L160.667 407.333L156.933 400.933C154.8 397.467 153.333 393.867 153.6 393.067C153.867 392.267 156.133 394.933 158.4 399.2C160.8 403.333 162.4 407.333 162 408C161.6 408.667 162 409.6 162.8 410.133C163.867 410.667 164 410.533 163.467 409.6C162.133 407.333 165.333 407.6 167.867 409.867C170.667 412.4 180 414.133 180 412.133C180 411.333 180.933 410.667 182 410.667C184.8 410.667 184.533 405.733 181.733 404.133C180.4 403.333 180 402.667 180.667 402.667C182.667 402.667 182 387.6 179.733 383.6C178.8 381.733 175.733 376.8 172.933 372.4C163.6 358.267 152.933 339.467 150.4 332.8C148.933 329.2 147.467 322.267 147.067 317.467C146.133 307.067 145.2 304.267 143.067 306.933Z" fill="#D8A892"/>
<path d="M285.333 312.933C285.333 313.733 285.867 314.8 286.533 315.2C287.733 316 289.867 323.467 289.6 326.667C289.6 327.733 289.067 330 288.533 331.6C288.133 333.333 288.267 334.667 289.067 334.667C290.8 334.667 294.4 325.467 293.733 322.667C292.933 319.733 285.333 310.933 285.333 312.933Z" fill="#D8A892"/>
<path d="M298.667 318.4C298.667 318.933 300.267 321.333 302.4 323.733C305.867 328 327.733 338.667 342.533 343.467C345.733 344.4 350.4 346.533 352.933 348.133C357.067 350.667 378.533 356.533 379.733 355.333C380.267 354.8 374.667 351.467 372.667 351.2C372 351.067 370 350.933 368.267 350.8C366.533 350.8 365.467 350.133 365.867 349.6C366.133 349.067 364.933 348.4 362.933 348.267C361.067 348.133 359.2 347.6 358.8 346.933C357.6 345.467 347.067 340.533 336.667 336.667C323.467 331.6 306.533 323.333 303.067 320.133C299.867 317.2 298.667 316.667 298.667 318.4Z" fill="#D8A892"/>
<path d="M126.267 335.6C124.667 337.067 125.333 340.933 127.333 342.667C129.067 344 129.733 344.133 131.067 342.8C132.267 341.467 132.133 341.333 130.133 342.133C127.867 343.067 127.733 342.667 128.4 338.933C129.2 334.933 128.267 333.467 126.267 335.6Z" fill="#D8A892"/>
<path d="M306.133 344.933C305.333 347.733 305.733 351.067 308.533 361.867C309.6 366.267 310.267 370.267 309.867 370.933C309.467 371.467 310.133 372 311.333 372C313.067 372 313.333 371.2 312.667 367.867C312 364.933 312.267 363.2 313.467 362.4C314.933 361.333 314.933 361.2 313.2 361.733C311.467 362.267 310.667 360.8 309.333 355.333C308.4 351.467 308 347.333 308.4 346.133C308.8 345.067 308.667 343.733 308 343.333C307.333 342.933 306.533 343.733 306.133 344.933Z" fill="#D8A892"/>
<path d="M321.733 345.067C319.2 346.667 318.4 354.133 320.533 355.867C321.6 356.8 322.8 356.933 323.2 356.267C323.6 355.467 323.067 354.667 322 354.133C320.933 353.733 320 352.8 320 352C320 351.2 320.667 350.933 321.6 351.467C322.533 352 322.667 351.867 322.133 350.933C321.6 350 321.733 348.267 322.533 347.067C323.733 344.933 324 344.933 325.2 348C326 350 326.533 350.533 326.533 349.2C326.667 346.4 323.733 343.867 321.733 345.067Z" fill="#D8A892"/>
<path d="M141.2 348.4C139.733 349.467 139.333 350.8 140.133 352.667C140.667 354.133 141.2 354.533 141.2 353.6C141.333 352.8 142 352 142.8 352C143.733 352 144.133 353.6 143.733 356C143.333 358.133 143.6 360 144.133 360C144.667 360 145.733 361.6 146.533 363.6L148 367.333L147.2 363.333C146.8 361.067 146.133 357.867 145.867 356C145.467 354.133 144.267 352 143.2 351.2C141.6 350 141.6 349.467 142.933 348.933C143.867 348.667 144.4 348 144 347.6C143.6 347.2 142.4 347.6 141.2 348.4Z" fill="#D8A892"/>
<path d="M330.133 349.067C328.933 351.067 330.667 354.667 332.8 354.667C335.067 354.667 335.067 353.333 332.8 350.267C331.733 348.933 330.533 348.4 330.133 349.067Z" fill="#D8A892"/>
<path d="M84.6667 352.4C83.2 353.2 78.1334 356.4 73.3334 359.467C62.2667 366.667 59.2 368.133 58.1334 367.067C57.7334 366.667 57.3334 366.933 57.3334 367.867C57.3334 368.933 56.6667 369.067 54.8 368C51.4667 366.267 49.3334 366.267 52 368C53.7334 369.067 53.7334 369.333 51.8667 369.333C50.1334 369.333 46.6667 374.267 46.6667 376.667C46.6667 378.4 80.6667 359.2 87.3334 353.6C88.1334 352.933 89.6 352 90.6667 351.6C92 351.067 91.8667 350.933 90 350.8C88.5334 350.8 86.1334 351.467 84.6667 352.4Z" fill="#D8A892"/>
<path d="M342.667 352.133C342.667 352.8 342.267 353.2 341.733 352.933C341.067 352.533 339.867 353.2 338.8 354.267C337.2 356 337.333 356.133 339.6 355.467C341.333 354.933 343.2 355.333 344.4 356.667C345.6 357.733 347.867 358.667 349.6 358.533C352.533 358.4 352.533 358.267 349.067 356.933C346.933 356.133 345.333 354.4 345.333 353.067C345.333 351.733 344.8 350.667 344 350.667C343.333 350.667 342.667 351.333 342.667 352.133Z" fill="#D8A892"/>
<path d="M108.933 352.933C108.4 353.333 108 355.2 108 356.933C108 359.6 107.467 360 105.067 359.333C102.133 358.533 102.133 358.667 104.4 360.533C106.4 362.133 106.667 362.933 105.333 365.2C104.533 366.8 103.2 367.6 102.4 367.2C101.467 366.667 101.333 366.8 101.867 367.733C103.6 370.533 106.533 369.467 107.467 365.6C107.867 363.6 108.8 360 109.6 357.6C110.933 353.2 110.667 351.2 108.933 352.933Z" fill="#D8A892"/>
<path d="M99.6 355.6C99.0667 356 98.6667 357.6 98.6667 358.933C98.6667 360.267 97.7334 361.733 96.5334 362.267C95.4667 362.667 94.8 363.867 95.3334 365.067C95.7334 366.133 95.3334 367.733 94.5334 368.8C92.8 370.933 91.8667 378 93.6 376.267C94.2667 375.6 96.2667 370.667 98.1334 365.467C101.333 356.4 101.733 353.467 99.6 355.6Z" fill="#D8A892"/>
<path d="M357.333 357.333C354.133 358.267 354.267 358.4 359.6 360.933C362.667 362.267 366.4 364.933 367.867 366.8C369.2 368.533 370.8 369.6 371.333 369.067C371.867 368.667 370.933 366.933 369.467 365.467C366.267 362.267 366 360.533 368.4 359.6C369.6 359.067 369.6 358.8 368.4 358.8C367.6 358.667 366.4 359.333 366 360C365.467 360.933 364.267 360.533 362.933 358.933C361.333 357.2 359.733 356.8 357.333 357.333Z" fill="#D8A892"/>
<path d="M323.733 358.133C322.533 359.2 325.333 366.667 326.933 366.667C327.733 366.667 327.867 365.2 327.333 362.933C326.4 358.933 324.933 356.933 323.733 358.133Z" fill="#D8A892"/>
<path d="M398.667 358.8C398.667 359.6 397.467 360 396 359.6C392.267 358.667 392.667 360.533 396.667 363.2C400 365.333 400 365.333 400 361.333C400 359.2 399.733 357.333 399.333 357.333C398.933 357.333 398.667 358 398.667 358.8Z" fill="#D8A892"/>
<path d="M370.933 360.133C371.2 361.067 373.6 362 376.4 362C379.067 362.133 380.933 361.733 380.533 361.067C380.133 360.4 378.4 360 376.933 360.267C375.333 360.4 373.2 360.133 372.133 359.467C370.933 358.667 370.533 358.8 370.933 360.133Z" fill="#D8A892"/>
<path d="M277.333 364.933C277.333 368.4 274.933 369.067 273.867 366C272.667 363.2 270.8 364.8 271.6 367.867C272 369.333 273.333 370.4 274.667 370.267C277.867 370 280.133 366.267 278.533 363.867C277.6 362.4 277.333 362.667 277.333 364.933Z" fill="#D8A892"/>
<path d="M336.533 368.267C336.933 370 337.333 372.133 337.333 373.067C337.333 374 337.867 374.533 338.533 374.133C339.2 373.6 339.6 372.267 339.333 370.933C339.067 369.733 338.8 367.867 338.8 366.933C338.667 366.133 338 365.333 337.2 365.333C336.267 365.333 336 366.533 336.533 368.267Z" fill="#D8A892"/>
<path d="M376.667 368C376.267 368.667 377.2 371.2 378.8 373.467C380.933 376.533 381.333 377.867 380.133 378.533C378.933 379.333 378.933 379.867 380.267 380.933C382.4 382.667 384.533 380.667 384.933 376.4C385.2 374.4 384.667 373.6 383.467 374.133C382.4 374.533 381.2 374.133 380.533 373.2C380 372.267 380.267 371.2 381.067 370.933C382 370.667 382.667 369.733 382.667 368.933C382.667 368.267 382.267 368 381.733 368.4C381.333 368.933 380.133 368.667 379.2 367.867C378.133 366.933 377.333 366.933 376.667 368Z" fill="#D8A892"/>
<path d="M278.8 372.8C277.867 375.2 275.067 378.933 272.533 380.8C269.333 383.333 268 385.333 268.133 387.867C268.133 391.333 268.133 391.333 269.333 388.267C270.133 386.533 272.4 384.667 274.533 383.867C276.533 383.067 278.933 381.2 279.6 379.733C280.8 377.067 280.933 377.067 283.6 381.467C286.8 386.533 287.733 391.867 286.133 394.4C284.8 396.533 285.867 397.733 289.733 398.267C291.333 398.533 292.133 398.267 291.333 397.733C289.6 396.4 288.933 387.067 290.533 386C292.133 385.067 297.733 387.2 300.4 390C302.8 392.267 305.333 391.733 305.333 388.8C305.333 387.2 297.2 384 292.933 384C290.533 384 282.667 374.533 282.667 371.6C282.667 367.467 280.4 368.267 278.8 372.8Z" fill="#D8A892"/>
<path d="M148.533 376.667C148.4 380 148.8 382.667 149.467 382.667C150.133 382.667 150.667 383.467 150.667 384.533C150.667 385.467 151.6 387.067 152.667 388C154.933 389.867 155.2 389.333 153.467 385.067C150.667 378.267 150.267 376.533 150.533 373.6C150.667 372 150.4 370.667 149.733 370.667C149.2 370.667 148.533 373.333 148.533 376.667Z" fill="#D8A892"/>
<path d="M313.867 374.933C314.267 376.667 314.533 378.267 314.667 378.667C314.933 379.067 314.933 379.733 314.8 380.267C314.8 380.933 315.6 381.333 316.667 381.333C318.933 381.333 319.333 379.2 317.333 378C316.667 377.6 316 376.267 316 375.067C316 373.333 316.267 373.333 318.267 374.8C320.133 376.4 320.4 376.4 319.733 374.667C319.467 373.6 317.867 372.533 316.267 372.267C313.867 371.867 313.467 372.4 313.867 374.933Z" fill="#D8A892"/>
<path d="M156.933 374.267C155.867 376 157.2 380 159.733 382.533C161.2 384 161.2 384.533 159.867 385.467C158.8 386 158.533 386.933 159.067 387.467C160.8 389.2 163.067 385.733 162 383.067C161.333 381.733 160.8 380.4 160.667 380C158.933 375.067 157.6 373.067 156.933 374.267Z" fill="#D8A892"/>
<path d="M308.8 375.867C307.333 377.467 306.933 378.667 307.733 378.667C308.533 378.667 309.467 377.867 309.733 376.933C310.133 376 310.533 376.267 310.533 377.6C310.667 378.933 309.733 380 308.533 380C306.667 380 306.667 380.4 308 382C311.333 386 313.867 382.8 312.267 376.667L311.2 373.067L308.8 375.867Z" fill="#D8A892"/>
<path d="M122.667 378.667C122.667 379.333 125.067 381.2 127.867 382.667C130.8 384.133 133.467 386.533 134 388C134.667 390 135.6 390.533 137.333 390C138.667 389.6 140.133 389.867 140.667 390.667C141.733 392.4 144 391.067 144 388.533C144 387.467 142.8 386.667 141.2 386.667C137.6 386.667 133.333 384.267 133.333 382.267C133.333 381.333 131.733 380.533 129.733 380.4C127.733 380.4 125.867 379.6 125.6 378.8C124.933 376.933 122.667 376.8 122.667 378.667Z" fill="#D8A892"/>
<path d="M91.7333 380C91.3333 381.067 91.6 383.467 92.2667 385.067C92.8 386.8 93.0667 388.667 92.6667 389.333C92.2667 390 92.5333 390.8 93.3333 391.333C94.8 392.267 94.9333 386.533 93.4667 381.333C92.8 378.933 92.2667 378.533 91.7333 380Z" fill="#D8A892"/>
<path d="M99.0667 382C97.0667 384.267 96.8 385.867 98.6667 384.667C99.4667 384.267 100 384.933 100 386.267C100 388.133 100.267 388.267 101.2 386.8C101.867 385.867 102.933 385.333 103.733 385.867C105.067 386.667 107.2 382.8 106 381.6C105.6 381.2 105.333 381.6 105.333 382.4C105.333 383.333 104.4 384 103.2 384C101.867 384 101.333 383.2 101.867 382C102.8 379.467 101.2 379.467 99.0667 382Z" fill="#D8A892"/>
<path d="M334.667 381.2C334.667 382 335.2 382.8 335.867 383.333C336.533 383.733 337.067 386.933 336.933 390.4C336.667 395.2 337.2 396.667 338.8 397.067C340.667 397.333 340.8 396.533 339.867 391.067C339.333 387.6 338.533 383.6 338 382.267C336.933 379.867 334.667 379.067 334.667 381.2Z" fill="#D8A892"/>
<path d="M375.333 392.133C375.867 398.267 376.533 404.8 376.667 406.667C376.8 408.533 377.067 411.733 377.2 413.733C377.467 421.2 379.6 415.867 379.467 408C379.333 403.6 379.733 400 380.4 400C381.067 400 380.933 399.2 380.133 398.267C379.333 397.2 379.067 396 379.6 395.6C380 395.067 379.733 394.667 378.933 394.667C378 394.667 377.333 393.733 377.333 392.667C377.333 391.467 378.133 391.067 379.333 391.467C382 392.533 381.867 390.667 379.067 388.533C377.6 387.467 377.333 386.8 378.4 386.667C380.933 386.667 380.267 384.8 377.067 382.8L374.267 381.067L375.333 392.133Z" fill="#D8A892"/>
<path d="M312.4 386.267C311.467 386.533 310.667 387.467 310.667 388.267C310.667 389.067 311.467 389.333 312.4 388.933C314.4 388.133 317.067 390.8 316.267 393.067C315.467 395.467 318 395.067 320.133 392.4C321.6 390.667 321.6 390.4 320.267 391.2C319.067 391.867 318.533 391.6 318.8 390.533C319.467 385.6 317.333 384.133 312.4 386.267Z" fill="#D8A892"/>
<path d="M104 388.4C100.533 390 98.6667 391.867 98.6667 393.867C98.6667 394.533 99.8667 394 101.2 392.8C102.8 391.333 104.533 390.8 105.6 391.467C106.533 392 106.933 392 106.4 391.333C105.867 390.8 106 389.467 106.8 388.4C108.533 386.4 108.4 386.4 104 388.4Z" fill="#D8A892"/>
<path d="M249.6 388.4C248.667 389.467 248.4 390.667 248.8 391.067C250 392.267 244.933 397.067 240.4 398.933C234.533 401.467 224 411.6 224 414.8C224 418.4 226.533 418 228 414C228.667 412.133 229.867 410.667 230.667 410.667C231.467 410.667 235.067 408 238.533 404.667C242 401.333 245.867 398.667 247.2 398.667C248.4 398.667 249.333 398.133 249.333 397.333C249.333 396.667 250.667 394.933 252.267 393.333C254.933 390.933 254.933 390.4 253.2 388.533C251.467 386.8 250.933 386.8 249.6 388.4Z" fill="#D8A892"/>
<path d="M13.7334 392.8C8.66669 395.733 6.26669 398.8 9.06669 398.667C10 398.533 20.9334 389.333 19.8667 389.333C19.6 389.333 16.8 390.933 13.7334 392.8Z" fill="#D8A892"/>
<path d="M255.067 394.533C250.8 399.6 244.267 415.467 245.867 416.933C246.267 417.333 246.933 416.667 247.333 415.467C249.467 408.8 249.6 408.533 250.533 410.667C251.6 413.333 254.267 413.733 255.2 411.2C255.6 410 255.467 409.6 254.667 410C251.6 411.867 252.133 406.533 255.867 398.267C258.133 393.333 259.733 389.333 259.6 389.333C259.467 389.333 257.467 391.733 255.067 394.533Z" fill="#D8A892"/>
<path d="M117.067 392C108.533 393.067 100.267 400.8 103.867 404.4C104.933 405.467 105.333 405.467 105.333 404.4C105.333 403.467 106.533 402.4 108 402C109.467 401.6 110.667 400 110.667 398.533C110.667 396.667 111.6 396 114.533 396C116.667 396 118.8 396.8 119.067 397.6C119.467 398.533 119.867 398.133 119.867 396.667C120 394.267 120.667 394 124.933 394.4C127.6 394.8 130.667 395.867 131.733 396.8C132.667 397.867 134 398.4 134.667 398C135.333 397.6 136.133 398.133 136.533 398.933C137.067 400.267 137.467 400.133 138.533 398.667C140.933 394.933 140.667 394 137.333 393.733C135.467 393.6 131.6 392.933 128.667 392.4C125.733 391.733 120.533 391.6 117.067 392Z" fill="#D8A892"/>
<path d="M169.467 392.133C169.333 393.333 168.267 394.8 167.067 395.333C164.8 396.133 164.8 396.267 167.067 398C168.4 398.933 169.333 400.533 169.2 401.6C168.8 404.8 169.333 406.667 170.533 406.667C172.267 406.667 173.867 395.867 172.4 394.8C171.6 394.4 170.667 393.067 170.267 392C169.733 390.4 169.467 390.4 169.467 392.133Z" fill="#D8A892"/>
<path d="M94.6667 394.267C94.6667 395.067 94.2667 396.667 93.8667 397.867C93.3333 399.333 93.7333 400 95.2 400C96.4 400 97.3333 401.067 97.3333 402.667C97.3333 404.133 97.8667 405.333 98.5333 405.333C99.3333 405.333 99.2 403.333 98.4 400.267C97.0667 395.333 94.6667 391.467 94.6667 394.267Z" fill="#D8A892"/>
<path d="M190.133 394.533C189.733 395.2 190.267 396.4 191.333 397.333C192.933 398.667 193.333 398.667 193.333 397.2C193.333 396.133 194.8 396.933 196.8 399.2C198.667 401.2 200.533 402.667 200.933 402.267C201.733 401.467 193.467 393.333 191.733 393.333C191.2 393.333 190.533 393.867 190.133 394.533Z" fill="#D8A892"/>
<path d="M302.667 398C302.667 400.533 303.2 402.667 303.733 402.667C304.267 402.667 304.8 400.533 304.933 398C305.067 395.467 304.533 393.333 303.867 393.333C303.2 393.333 302.667 395.467 302.667 398Z" fill="#D8A892"/>
<path d="M272.933 398.267C271.467 400.8 270.533 408 271.733 408C272.4 408 273.333 405.733 273.6 402.933C274.267 397.867 274.133 396.4 272.933 398.267Z" fill="#D8A892"/>
<path d="M335.067 400.133C336.933 401.2 337.2 402.533 336.533 406.133C336 408.8 336.267 410.667 337.067 410.667C337.733 410.667 338.4 408 338.4 404.667C338.533 399.333 338.267 398.667 335.6 398.667C332.933 398.8 332.933 398.933 335.067 400.133Z" fill="#D8A892"/>
<path d="M7.33334 405.067C6.93334 406.667 5.73334 407.6 4.80001 407.2C3.46667 406.667 3.20001 407.467 3.60001 410C4.53334 414.267 6.66667 415.733 6.66667 412.133C6.66667 410.533 7.20001 409.333 7.86667 409.333C9.73334 409.333 10.9333 405.067 9.46667 403.6C8.80001 402.933 8.00001 403.467 7.33334 405.067Z" fill="#D8A892"/>
<path d="M204 405.733C204 406.533 207.333 409.067 211.2 411.2C215.2 413.333 218.267 415.467 218 416C217.733 416.4 218.8 416.933 220.4 416.933C223.2 417.2 223.2 417.067 220 414.533C212.933 409.067 204 404 204 405.733Z" fill="#D8A892"/>
<path d="M197.333 415.6C197.333 417.333 197.6 417.6 198.4 416.267C199.333 414.933 200.4 414.933 203.2 416C208.8 418.133 212 417.6 207.467 415.333C202.267 412.533 197.333 412.667 197.333 415.6Z" fill="#D8A892"/>
</g>
<defs>
<clipPath id="clip0_11_1756">
<rect width="400" height="417.333" fill="white"/>
</clipPath>
</defs>
</svg>
